{
  "accessors": [
    {
      "bufferView": 2,
      "componentType": 5126,
      "count": 28192,
      "max": [
        49.94187545776367,
        137.95730590820313,
        22.0523681640625
      ],
      "min": [
        -49.94187545776367,
        -12.133393287658691,
        -22.0523681640625
      ],
      "type": "VEC3"
    },
    {
      "bufferView": 2,
      "byteOffset": 338304,
      "componentType": 5126,
      "count": 28192,
      "max": [
        1.0,
        1.0,
        1.0
      ],
      "min": [
        -1.0,
        -1.0,
        -1.0
      ],
      "type": "VEC3"
    },
    {
      "bufferView": 1,
      "componentType": 5126,
      "count": 28192,
      "max": [
        1.0,
        1.0
      ],
      "min": [
        0.0,
        0.0
      ],
      "type": "VEC2"
    },
    {
      "bufferView": 1,
      "byteOffset": 225536,
      "componentType": 5126,
      "count": 28192,
      "max": [
        11.70372486114502,
        104.92611694335938
      ],
      "min": [
        -10.84121036529541,
        -109.67759704589844
      ],
      "type": "VEC2"
    },
    {
      "bufferView": 0,
      "componentType": 5125,
      "count": 123108,
      "type": "SCALAR"
    },
    {
      "bufferView": 2,
      "byteOffset": 676608,
      "componentType": 5126,
      "count": 30472,
      "max": [
        47.08296203613281,
        102.3741683959961,
        5.872283935546875
      ],
      "min": [
        29.351425170898438,
        94.8360595703125,
        -5.7918548583984375
      ],
      "type": "VEC3"
    },
    {
      "bufferView": 2,
      "byteOffset": 1042272,
      "componentType": 5126,
      "count": 30472,
      "max": [
        1.0,
        0.9989269971847534,
        0.9999991655349731
      ],
      "min": [
        -1.0,
        -0.9989268183708191,
        -0.9999967813491821
      ],
      "type": "VEC3"
    },
    {
      "bufferView": 1,
      "byteOffset": 451072,
      "componentType": 5126,
      "count": 30472,
      "max": [
        1.0,
        1.0
      ],
      "min": [
        0.0,
        0.0
      ],
      "type": "VEC2"
    },
    {
      "bufferView": 1,
      "byteOffset": 694848,
      "componentType": 5126,
      "count": 30472,
      "max": [
        9.355987548828125,
        6.202415466308594
      ],
      "min": [
        -8.356063842773438,
        -5.201515197753906
      ],
      "type": "VEC2"
    },
    {
      "bufferView": 0,
      "byteOffset": 492432,
      "componentType": 5125,
      "count": 117048,
      "type": "SCALAR"
    },
    {
      "bufferView": 2,
      "byteOffset": 1407936,
      "componentType": 5126,
      "count": 22016,
      "max": [
        46.679500579833984,
        107.0659408569336,
        266.04205322265625
      ],
      "min": [
        -46.679500579833984,
        100.69497680664063,
        -254.8812255859375
      ],
      "type": "VEC3"
    },
    {
      "bufferView": 2,
      "byteOffset": 1672128,
      "componentType": 5126,
      "count": 22016,
      "max": [
        0.9951881766319275,
        0.9952346086502075,
        0.999987006187439
      ],
      "min": [
        -0.9951874017715454,
        -0.9952369928359985,
        -1.0
      ],
      "type": "VEC3"
    },
    {
      "bufferView": 1,
      "byteOffset": 938624,
      "componentType": 5126,
      "count": 22016,
      "max": [
        1.0,
        1.0
      ],
      "min": [
        0.0,
        0.01000000536441803
      ],
      "type": "VEC2"
    },
    {
      "bufferView": 1,
      "byteOffset": 1114752,
      "componentType": 5126,
      "count": 22016,
      "max": [
        1.0,
        1.0
      ],
      "min": [
        0.0,
        0.01000000536441803
      ],
      "type": "VEC2"
    },
    {
      "bufferView": 1,
      "byteOffset": 1290880,
      "componentType": 5126,
      "count": 22016,
      "max": [
        1.0,
        1.0
      ],
      "min": [
        0.0,
        0.01000000536441803
      ],
      "type": "VEC2"
    },
    {
      "bufferView": 1,
      "byteOffset": 1467008,
      "componentType": 5126,
      "count": 22016,
      "max": [
        1.0,
        1.0
      ],
      "min": [
        0.0,
        0.01000000536441803
      ],
      "type": "VEC2"
    },
    {
      "bufferView": 0,
      "byteOffset": 960624,
      "componentType": 5125,
      "count": 33696,
      "type": "SCALAR"
    }
  ],
  "asset": {
    "extras": {
      "author": "ustoopia (https://sketchfab.com/ustoopia)",
      "license": "CC-BY-4.0 (http://creativecommons.org/licenses/by/4.0/)",
      "source": "https://sketchfab.com/3d-models/electric-pole-341079cf3c584b5cbb920da0cc43f13f",
      "title": "Electric Pole"
    },
    "generator": "Sketchfab-14.41.0",
    "version": "2.0"
  },
  "bufferViews": [
    {
      "buffer": 0,
      "byteLength": 1095408,
      "name": "floatBufferViews",
      "target": 34963
    },
    {
      "buffer": 0,
      "byteLength": 1643136,
      "byteOffset": 1095408,
      "byteStride": 8,
      "name": "floatBufferViews",
      "target": 34962
    },
    {
      "buffer": 0,
      "byteLength": 1936320,
      "byteOffset": 2738544,
      "byteStride": 12,
      "name": "floatBufferViews",
      "target": 34962
    }
  ],
  "buffers": [
    {
      "byteLength": 4674864,
      "uri": "scene.bin"
    }
  ],
  "images": [
    {
      "uri": "textures/Brushed_metal_baseColor.png"
    },
    {
      "uri": "textures/Brushed_metal_metallicRoughness.png"
    }
  ],
  "materials": [
    {
      "doubleSided": true,
      "name": "Stainless_Steel"
    },
    {
      "doubleSided": true,
      "name": "Metal_04"
    },
    {
      "doubleSided": true,
      "name": "Brushed_metal",
      "pbrMetallicRoughness": {
        "baseColorTexture": {
          "index": 0
        },
        "metallicRoughnessTexture": {
          "index": 1,
          "texCoord": 1
        }
      }
    }
  ],
  "meshes": [
    {
      "name": "Object_0",
      "primitives": [
        {
          "attributes": {
            "NORMAL": 1,
            "POSITION": 0,
            "TEXCOORD_0": 2,
            "TEXCOORD_1": 3
          },
          "indices": 4,
          "material": 0,
          "mode": 4
        }
      ]
    },
    {
      "name": "Object_1",
      "primitives": [
        {
          "attributes": {
            "NORMAL": 6,
            "POSITION": 5,
            "TEXCOORD_0": 7,
            "TEXCOORD_1": 8
          },
          "indices": 9,
          "material": 1,
          "mode": 4
        }
      ]
    },
    {
      "name": "Object_2",
      "primitives": [
        {
          "attributes": {
            "NORMAL": 11,
            "POSITION": 10,
            "TEXCOORD_0": 12,
            "TEXCOORD_1": 13,
            "TEXCOORD_2": 14,
            "TEXCOORD_3": 15
          },
          "indices": 16,
          "material": 2,
          "mode": 4
        }
      ]
    }
  ],
  "nodes": [
    {
      "children": [
        1
      ],
      "matrix": [
        1.0,
        0.0,
        0.0,
        0.0,
        0.0,
        2.220446049250313e-16,
        -1.0,
        0.0,
        0.0,
        1.0,
        2.220446049250313e-16,
        0.0,
        0.0,
        0.0,
        0.0,
        1.0
      ],
      "name": "Sketchfab_model"
    },
    {
      "children": [
        2
      ],
      "name": "root"
    },
    {
      "children": [
        3
      ],
      "matrix": [
        1.0,
        0.0,
        0.0,
        0.0,
        0.0,
        2.220446049250313e-16,
        1.0,
        0.0,
        0.0,
        -1.0,
        2.220446049250313e-16,
        0.0,
        0.0,
        0.0,
        0.0,
        1.0
      ],
      "name": "GLTF_SceneRootNode"
    },
    {
      "children": [
        4,
        5,
        6
      ],
      "matrix": [
        1.0,
        0.0,
        0.0,
        0.0,
        0.0,
        1.0,
        0.0,
        0.0,
        0.0,
        0.0,
        1.0,
        0.0,
        0.0,
        12.27796459197998,
        0.0,
        1.0
      ],
      "name": "MetalPole_1"
    },
    {
      "mesh": 0,
      "name": "Object_4"
    },
    {
      "mesh": 1,
      "name": "Object_5"
    },
    {
      "children": [
        7
      ],
      "matrix": [
        1.0,
        0.0,
        0.0,
        0.0,
        0.0,
        1.0,
        0.0,
        0.0,
        0.0,
        0.0,
        1.0,
        0.0,
        0.0,
        -12.27796459197998,
        0.0,
        1.0
      ],
      "name": "Cylinder.004_0"
    },
    {
      "mesh": 2,
      "name": "Object_7"
    }
  ],
  "samplers": [
    {
      "magFilter": 9729,
      "minFilter": 9987,
      "wrapS": 10497,
      "wrapT": 10497
    }
  ],
  "scene": 0,
  "scenes": [
    {
      "name": "Sketchfab_Scene",
      "nodes": [
        0
      ]
    }
  ],
  "textures": [
    {
      "sampler": 0,
      "source": 0
    },
    {
      "sampler": 0,
      "source": 1
    }
  ]
}
